<?xml version="1.0" encoding="utf-8"?>
<!-- Generator: Adobe Illustrator 27.0.1, SVG Export Plug-In . SVG Version: 6.00 Build 0)  -->
<!DOCTYPE svg PUBLIC "-//W3C//DTD SVG 1.1//EN" "http://www.w3.org/Graphics/SVG/1.1/DTD/svg11.dtd" [
	<!ENTITY ns_extend "http://ns.adobe.com/Extensibility/1.0/">
	<!ENTITY ns_ai "http://ns.adobe.com/AdobeIllustrator/10.0/">
	<!ENTITY ns_graphs "http://ns.adobe.com/Graphs/1.0/">
	<!ENTITY ns_vars "http://ns.adobe.com/Variables/1.0/">
	<!ENTITY ns_imrep "http://ns.adobe.com/ImageReplacement/1.0/">
	<!ENTITY ns_sfw "http://ns.adobe.com/SaveForWeb/1.0/">
	<!ENTITY ns_custom "http://ns.adobe.com/GenericCustomNamespace/1.0/">
	<!ENTITY ns_adobe_xpath "http://ns.adobe.com/XPath/1.0/">
]>
<svg version="1.1" xmlns:x="&ns_extend;" xmlns:i="&ns_ai;" xmlns:graph="&ns_graphs;"
	 xmlns="http://www.w3.org/2000/svg" xmlns:xlink="http://www.w3.org/1999/xlink" x="0px" y="0px" width="750px" height="750px"
	 viewBox="0 0 750 750" enable-background="new 0 0 750 750" xml:space="preserve">
<metadata>
	<sfw  xmlns="&ns_sfw;">
		<slices></slices>
		<sliceSourceBounds  bottomLeftOrigin="true" height="7714.351" width="9246" x="-2000" y="42"></sliceSourceBounds>
	</sfw>
</metadata>
<g id="FILL-BACKGROUND">
	<rect fill="#FFFFFF" width="750" height="750"/>
</g>
<g id="N-DIMENSIONS">
</g>
<g id="N-TEXT">
</g>
<g id="_x32_D_x24_AG-DIAGRAM">
</g>
<g id="_x32_D_x24_AG-DETAILS-DIAGRAM">
</g>
<g id="_x32_D_x24_AG-DETAILS">
	<g id="POLYLINE_00000009548380367831458760000011863194439112973724_">
		<path fill="none" stroke="#00B9D2" stroke-width="2" stroke-linecap="round" stroke-linejoin="round" stroke-miterlimit="10" d="
			M171.373,419.173c0.228,0.48,0.2,1.07-0.073,1.527c-0.266,0.459-0.766,0.768-1.295,0.803c-0.255,0.036-1.13-0.148-1.397-0.181
			c-0.384-0.062-0.752-0.229-1.051-0.478c-0.239-0.198-0.435-0.449-0.57-0.729c-0.019-0.002-3.022-6.5-3.04-6.512
			c-0.026-0.055-0.05-0.116-0.07-0.174c-0.071-0.212-0.098-0.44-0.078-0.663c0.054-0.686,0.569-1.289,1.239-1.448
			c0.214-0.053,0.439-0.062,0.656-0.027c0.27,0.049,1.122,0.159,1.365,0.25c0.416,0.139,0.788,0.407,1.052,0.758
			c0.072,0.096,0.138,0.199,0.193,0.306c0.013,0.026,0.031,0.06,0.043,0.087C168.347,412.69,171.373,419.173,171.373,419.173z"/>
	</g>
	<g id="POLYLINE_00000024715947390565844210000010186782252492496014_">
		<path fill="none" stroke="#00B9D2" stroke-width="2" stroke-linecap="round" stroke-linejoin="round" stroke-miterlimit="10" d="
			M272.607,609.597c-0.241-0.343-0.62-0.586-1.032-0.663c-0.406-0.078-0.84,0.005-1.187,0.228c-0.199,0.126-0.37,0.297-0.497,0.495
			c-0.149,0.201-0.428,1.067-0.53,1.31c-0.19,0.526-0.166,1.124,0.065,1.634c0.049,0.109,0.108,0.216,0.174,0.315
			c-0.011,0.012,11.867,16.742,11.872,16.768c0.111,0.157,0.25,0.294,0.408,0.403c0.337,0.233,0.763,0.333,1.168,0.272
			c0.397-0.057,0.77-0.266,1.025-0.576c0.082-0.099,0.153-0.209,0.21-0.325c0.018-0.039,0.039-0.082,0.054-0.123
			c0,0,0.009-0.025,0.009-0.025l0.361-0.965c0.109-0.29,0.155-0.605,0.134-0.914c-0.015-0.225-0.066-0.449-0.148-0.658
			c-0.052-0.132-0.118-0.261-0.195-0.381C284.49,626.355,272.634,609.65,272.607,609.597z"/>
	</g>
	<g id="POLYLINE_00000145768852680362338040000015918773015470618542_">
		<path fill="none" stroke="#00B9D2" stroke-width="2" stroke-linecap="round" stroke-linejoin="round" stroke-miterlimit="10" d="
			M578.627,419.173c-0.228,0.48-0.2,1.07,0.073,1.527c0.266,0.459,0.766,0.768,1.295,0.803c0.255,0.036,1.13-0.148,1.397-0.181
			c0.384-0.062,0.752-0.229,1.051-0.478c0.239-0.198,0.435-0.449,0.57-0.729c0.019-0.002,3.022-6.5,3.04-6.512
			c0.026-0.055,0.05-0.116,0.07-0.174c0.071-0.212,0.098-0.44,0.078-0.663c-0.054-0.686-0.569-1.289-1.239-1.448
			c-0.214-0.053-0.439-0.062-0.656-0.027c-0.27,0.049-1.122,0.159-1.365,0.25c-0.416,0.139-0.788,0.407-1.052,0.758
			c-0.072,0.096-0.138,0.199-0.193,0.306c-0.013,0.026-0.031,0.06-0.043,0.087C581.653,412.69,578.627,419.173,578.627,419.173z"/>
	</g>
	<g id="POLYLINE_00000132783612071234057370000002814841106186809786_">
		<path fill="none" stroke="#00B9D2" stroke-width="2" stroke-linecap="round" stroke-linejoin="round" stroke-miterlimit="10" d="
			M477.393,609.597c0.241-0.343,0.62-0.586,1.032-0.663c0.406-0.078,0.84,0.005,1.187,0.228c0.199,0.126,0.37,0.297,0.497,0.495
			c0.149,0.201,0.428,1.067,0.53,1.31c0.19,0.526,0.166,1.124-0.065,1.634c-0.049,0.109-0.108,0.216-0.174,0.315
			c0.011,0.012-11.867,16.742-11.872,16.768c-0.111,0.157-0.25,0.294-0.408,0.403c-0.337,0.233-0.763,0.333-1.168,0.272
			c-0.397-0.057-0.77-0.266-1.025-0.576c-0.082-0.099-0.153-0.209-0.21-0.325c-0.018-0.039-0.039-0.082-0.054-0.123
			c0,0-0.009-0.025-0.009-0.025s-0.361-0.965-0.361-0.965c-0.109-0.29-0.155-0.605-0.134-0.914c0.015-0.225,0.066-0.449,0.148-0.658
			c0.052-0.132,0.118-0.261,0.195-0.381C465.51,626.355,477.366,609.65,477.393,609.597z"/>
	</g>
</g>
<g id="_x32_D_x24_AG-DIGITAL">
	<g id="POLYLINE_00000013875180332208370010000009602743758852717213_">
		
			<path fill="none" stroke="#00B9D2" stroke-width="2.75" stroke-linecap="round" stroke-linejoin="round" stroke-miterlimit="10" d="
			M152.827,389.525c1.003-1.123,1.705-2.514,2.013-3.988c0.068-0.324,0.119-0.66,0.149-0.991c0.013-0.141,0.023-0.3,0.029-0.441
			c0.001-0.042,0.005-0.132,0.005-0.174c0,0,0.541-26.534,0.541-26.534"/>
	</g>
	<g id="POLYLINE_00000168110474725469150570000014539074615256899259_">
		
			<path fill="none" stroke="#00B9D2" stroke-width="2.75" stroke-linecap="round" stroke-linejoin="round" stroke-miterlimit="10" d="
			M138.238,356.091c0,0-0.561,27.486-0.561,27.486c-0.004,0.189-0.001,0.394,0.008,0.583c0.029,0.609,0.123,1.221,0.278,1.811
			c0.212,0.802,0.542,1.578,0.973,2.287c0.884,1.46,2.211,2.648,3.761,3.365c1.48,0.69,3.158,0.948,4.777,0.734"/>
	</g>
	<g id="POLYLINE_00000037691265839096688910000004761094492506678206_">
		
			<line fill="none" stroke="#00B9D2" stroke-width="2.75" stroke-linecap="round" stroke-linejoin="round" stroke-miterlimit="10" x1="163.692" y1="349.311" x2="131.971" y2="346.92"/>
	</g>
	<g id="POLYLINE_00000085962967685325955480000000030213342723398826_">
		
			<path fill="none" stroke="#00B9D2" stroke-width="2.75" stroke-linecap="round" stroke-linejoin="round" stroke-miterlimit="10" d="
			M375,122.808c-42.286-0.019-82.453,9.552-116.784,35.086c-9.239,6.807-18.12,14.605-26.416,22.526
			c-6.92,6.695-14.344,13.808-20.386,21.3c-2.892,3.576-5.534,7.425-7.72,11.474c-2.967,5.426-5.246,11.329-7.238,17.177
			c-2.325,7.027-5.814,18.193-8.578,24.928c-2.306,5.634-7.478,17.838-9.447,23.368c-2.098,5.764-4.079,12.164-5.67,18.09
			c-5.322,19.905-8.235,40.669-9.806,61.197l-31.718-2.391c2.205-28.623,6.838-57.524,16.662-84.586
			c4.22-11.693,9.712-23.123,15.813-33.947c3.757-6.721,7.899-13.554,12.461-19.754c3.94-5.283,13.956-19.093,17.959-23.94
			c5.174-6.389,11.22-12.967,16.995-18.826c14.129-14.143,29.164-27.926,46.039-38.737c35.357-22.9,76.081-31.804,117.832-31.76"/>
	</g>
	<g id="POLYLINE_00000028326012276147077840000009730503551616547256_">
		
			<path fill="none" stroke="#00B9D2" stroke-width="2.75" stroke-linecap="round" stroke-linejoin="round" stroke-miterlimit="10" d="
			M375,159.027c-36.521-0.06-71.958,7.947-104.823,23.889c-9.458,4.562-19.074,9.958-27.981,15.517
			c-12.007,7.361-33.454,22.735-45.303,30.667"/>
	</g>
	<g id="POLYLINE_00000018925214163750467310000008977218017195888040_">
		
			<path fill="none" stroke="#00B9D2" stroke-width="2.75" stroke-linecap="round" stroke-linejoin="round" stroke-miterlimit="10" d="
			M199.91,369.034c-8.903,4.785-14.268,14.47-13.6,24.556c0.162,2.533,0.702,5.063,1.59,7.441c0,0,0.161,0.419,0.161,0.419
			c0.324,0.819,0.709,1.673,1.114,2.453c0.439,0.877,106.917,197.858,107.388,198.749c0.653,1.158,1.424,2.312,2.248,3.356
			c1.943,2.464,4.352,4.584,7.044,6.197c8.23,4.965,18.723,4.934,26.927-0.092c7.532-4.559,12.307-12.837,12.478-21.64
			c0.071-3.138-0.436-6.305-1.483-9.264c-0.346-0.973-0.766-1.971-1.225-2.894c-0.031-0.375-107.192-198.225-107.375-198.756
			c0,0-0.217-0.393-0.217-0.393l-0.224-0.39c-0.519-0.883-1.128-1.796-1.749-2.611c-1.446-1.899-3.174-3.616-5.084-5.049
			C219.84,365.034,208.795,364.206,199.91,369.034z"/>
	</g>
	<g id="POLYLINE_00000007395025329440750660000005888346688500267956_">
		
			<path fill="none" stroke="#00B9D2" stroke-width="2.75" stroke-linecap="round" stroke-linejoin="round" stroke-miterlimit="10" d="
			M302.405,609.731c-0.961,1.09-1.816,2.297-2.447,3.609c-0.56,1.155-0.933,2.405-1.15,3.669c-0.38,2.329-0.433,4.919-0.813,7.249
			c-0.373,2.48-1,4.957-2.069,7.234c-1.696,3.657-4.532,6.697-7.787,9.032c-2.838,2.026-6.026,3.579-9.366,4.577
			c-2.441,0.718-5.016,1.021-7.556,0.831c-4.292-0.309-8.405-1.878-12.178-3.882c-3.281-1.758-6.427-3.86-9.315-6.209
			c-6.468-5.293-11.913-11.836-16.974-18.455c-15.783-21.113-29.336-45.266-42.219-68.264
			c-12.221-22.28-25.342-46.968-35.962-70.027c-5.115-11.23-10.173-23.027-13.93-34.787c-2.49-7.93-4.555-16.162-4.681-24.514
			c-0.034-3.238,0.166-6.53,0.69-9.727c0.532-3.195,1.425-6.382,2.933-9.26c1.432-2.767,3.499-5.196,5.971-7.089
			c3.619-2.761,7.83-4.805,12.292-5.749c2.704-0.567,5.52-0.707,8.249-0.237c2.556,0.428,5.015,1.364,7.323,2.527
			c2.057,1.01,4.309,2.5,6.369,3.514c0.995,0.478,2.046,0.853,3.126,1.083c1.159,0.249,2.359,0.331,3.543,0.29"/>
	</g>
	<g id="POLYLINE_00000092439101899341627710000005422181277946504592_">
		
			<path fill="none" stroke="#00B9D2" stroke-width="2.75" stroke-linecap="round" stroke-linejoin="round" stroke-miterlimit="10" d="
			M550.09,369.034c8.903,4.785,14.268,14.47,13.6,24.556c-0.162,2.533-0.702,5.063-1.59,7.441c0,0-0.161,0.419-0.161,0.419
			c-0.324,0.819-0.709,1.673-1.114,2.453c-0.439,0.877-106.917,197.858-107.388,198.749c-0.653,1.158-1.424,2.312-2.248,3.356
			c-1.943,2.464-4.352,4.584-7.044,6.197c-8.23,4.965-18.723,4.934-26.927-0.092c-7.532-4.559-12.307-12.837-12.478-21.64
			c-0.071-3.138,0.436-6.305,1.483-9.264c0.346-0.973,0.766-1.971,1.225-2.894c0.031-0.375,107.192-198.225,107.375-198.756
			c0,0,0.217-0.393,0.217-0.393s0.224-0.39,0.224-0.39c0.519-0.883,1.128-1.796,1.749-2.611c1.446-1.899,3.174-3.616,5.084-5.049
			C530.16,365.034,541.205,364.206,550.09,369.034z"/>
	</g>
	<g id="POLYLINE_00000059292698844146475540000010647635238820417452_">
		
			<line fill="none" stroke="#00B9D2" stroke-width="2.75" stroke-linecap="round" stroke-linejoin="round" stroke-miterlimit="10" x1="586.308" y1="349.311" x2="618.029" y2="346.92"/>
	</g>
	<g id="POLYLINE_00000058549556340386415870000016425544861892200074_">
		
			<path fill="none" stroke="#00B9D2" stroke-width="2.75" stroke-linecap="round" stroke-linejoin="round" stroke-miterlimit="10" d="
			M375,122.808c42.286-0.019,82.453,9.552,116.784,35.086c9.239,6.807,18.12,14.605,26.416,22.526
			c6.92,6.695,14.344,13.808,20.386,21.3c2.892,3.576,5.534,7.425,7.72,11.474c2.967,5.426,5.246,11.329,7.238,17.177
			c2.325,7.027,5.814,18.193,8.578,24.928c2.306,5.634,7.478,17.838,9.447,23.368c2.098,5.764,4.079,12.164,5.67,18.09
			c5.322,19.905,8.235,40.669,9.806,61.197l31.718-2.391c-2.206-28.623-6.838-57.524-16.662-84.586
			c-4.22-11.693-9.712-23.123-15.813-33.947c-3.757-6.721-7.899-13.554-12.461-19.754c-3.94-5.283-13.956-19.093-17.959-23.94
			c-5.174-6.389-11.22-12.967-16.995-18.826c-14.129-14.143-29.164-27.926-46.039-38.737c-35.357-22.9-76.081-31.804-117.832-31.76"
			/>
	</g>
	<g id="POLYLINE_00000046312877896118610460000016940057821480883596_">
		
			<path fill="none" stroke="#00B9D2" stroke-width="2.75" stroke-linecap="round" stroke-linejoin="round" stroke-miterlimit="10" d="
			M611.837,403.59c2.354-0.84,2.816-2.774,1.857-4.946c-0.402-0.914-0.975-1.75-1.606-2.52c-0.906-1.097-1.963-2.088-3.068-2.982
			c-3.362-2.682-7.263-4.705-11.375-5.959c-2.213-0.648-4.54-1.109-6.854-0.933c-0.97,0.086-1.959,0.293-2.801,0.801
			c-0.389,0.237-0.74,0.547-0.994,0.928c-0.249,0.37-0.4,0.803-0.448,1.246c-0.068,0.605,0.039,1.218,0.229,1.793
			c0.307,0.919,0.816,1.762,1.391,2.538c1.588,2.101,3.668,3.794,5.848,5.247c2.988,1.959,6.279,3.499,9.727,4.448
			c1.63,0.438,3.323,0.75,5.014,0.773C609.795,404.032,610.854,403.937,611.837,403.59z"/>
	</g>
	<g id="POLYLINE_00000049910674318869455930000003270290973484934291_">
		
			<path fill="none" stroke="#00B9D2" stroke-width="2.75" stroke-linecap="round" stroke-linejoin="round" stroke-miterlimit="10" d="
			M613.82,402.049l-2.105,3.846c-0.758,1.464-2.561,1.906-4.082,2.023c-1.795,0.123-3.606-0.15-5.349-0.567
			c-2.541-0.623-5.004-1.603-7.323-2.808c-2.921-1.54-5.71-3.441-7.957-5.878c-0.999-1.111-1.924-2.353-2.394-3.788
			c-0.21-0.66-0.307-1.376-0.153-2.058c0.043-0.188,0.105-0.374,0.186-0.55c0.025-0.052,0.053-0.11,0.081-0.161
			c0,0,2.146-3.924,2.146-3.924"/>
	</g>
	<g id="POLYLINE_00000137123670474283429400000018153354087666285219_">
		
			<path fill="none" stroke="#00B9D2" stroke-width="2.75" stroke-linecap="round" stroke-linejoin="round" stroke-miterlimit="10" d="
			M447.595,609.731c1.522,1.713,2.742,3.734,3.312,5.966c0.305,1.164,0.463,2.391,0.567,3.59c0.151,1.654,0.312,3.748,0.594,5.384
			c0.39,2.414,1.035,4.818,2.101,7.025c0.894,1.872,2.098,3.597,3.497,5.126c2.231,2.44,4.941,4.427,7.865,5.958
			c2.104,1.091,4.329,1.994,6.63,2.573c2.472,0.619,5.063,0.788,7.594,0.487c3.944-0.46,7.715-1.939,11.203-3.791
			c3.037-1.627,5.964-3.554,8.668-5.69c3.394-2.686,6.534-5.793,9.435-9.002c5.254-5.823,10.122-12.42,14.609-18.856
			c7.542-10.852,15.098-23.329,21.829-34.75c12.241-21.044,25.27-45.073,36.368-66.751c6.534-12.992,13.956-28.105,19.545-41.494
			c3.026-7.258,6.096-15.132,8.398-22.652c1.621-5.314,3.019-10.816,3.735-16.333c0.57-4.331,0.649-8.776,0.233-13.125
			c-0.321-3.307-0.929-6.634-2.099-9.753"/>
	</g>
	<g id="POLYLINE_00000108297220499219717260000014458035290293573012_">
		
			<path fill="none" stroke="#00B9D2" stroke-width="2.75" stroke-linecap="round" stroke-linejoin="round" stroke-miterlimit="10" d="
			M587.457,387.447c-2.002-0.019-4.011,0.272-5.933,0.829c-2.365,0.679-4.621,1.755-6.765,2.951
			c-1.852,1.02-3.961,2.435-5.959,3.137c-1.675,0.612-3.478,0.847-5.256,0.78"/>
	</g>
	<g id="POLYLINE_00000065790009711035623820000016720022227769917592_">
		
			<path fill="none" stroke="#00B9D2" stroke-width="2.75" stroke-linecap="round" stroke-linejoin="round" stroke-miterlimit="10" d="
			M611.762,356.091c0,0.18,0.565,27.475,0.563,27.629c0.001,0.285-0.013,0.593-0.041,0.876c-0.035,0.349-0.091,0.707-0.168,1.049
			c-0.138,0.619-0.346,1.226-0.616,1.8c-0.885,1.896-2.481,3.444-4.403,4.269"/>
	</g>
	<g id="POLYLINE_00000161625936011104583940000004056988597309633195_">
		
			<path fill="none" stroke="#00B9D2" stroke-width="2.75" stroke-linecap="round" stroke-linejoin="round" stroke-miterlimit="10" d="
			M595.464,386.626c-0.221-0.63-0.37-1.289-0.441-1.953c-0.023-0.216-0.039-0.444-0.045-0.661
			c-0.004-0.087-0.541-26.525-0.544-26.615"/>
	</g>
	<g id="POLYLINE_00000057847620060398272710000009868586184892366514_">
		
			<path fill="none" stroke="#00B9D2" stroke-width="2.75" stroke-linecap="round" stroke-linejoin="round" stroke-miterlimit="10" d="
			M375,159.027c36.521-0.06,71.958,7.947,104.823,23.889c9.458,4.562,19.074,9.958,27.981,15.517
			c12.007,7.361,33.454,22.735,45.303,30.667"/>
	</g>
</g>
<g id="_x32_D_x24_AG-OUTLINE">
	<g id="POLYLINE_00000027606632569319472470000017419298609698606466_">
		
			<path fill="none" stroke="#00B9D2" stroke-width="3.5" stroke-linecap="round" stroke-linejoin="round" stroke-miterlimit="10" d="
			M138.238,356.091l-7-0.528c2.411-31.218,7.675-62.746,19.473-91.886c3.653-9.071,8.223-18.114,13.001-26.647
			c3.772-6.721,7.888-13.554,12.461-19.754c2.921-3.781,13.24-18.124,15.958-21.433c2.779-3.553,6.29-7.683,9.299-11.053
			c11.001-12.119,23.169-23.793,35.708-34.306c40.076-33.425,86.255-46.436,137.861-46.472c51.61,0.035,97.789,13.05,137.861,46.472
			c12.537,10.513,24.711,22.188,35.708,34.306c2.967,3.371,6.546,7.499,9.299,11.053c3.035,3.7,12.992,17.553,15.958,21.432
			c4.567,6.198,8.704,13.038,12.461,19.754c4.766,8.53,9.354,17.576,13.001,26.647c11.797,29.139,17.064,60.668,19.474,91.886
			l-7,0.528c0,0.18,0.565,27.475,0.563,27.629c0.001,0.285-0.013,0.593-0.041,0.876c-0.035,0.349-0.091,0.707-0.168,1.049
			c-0.138,0.619-0.346,1.226-0.616,1.8c-0.885,1.896-2.481,3.444-4.403,4.269c1.959,1.348,3.824,2.901,5.291,4.784
			c0.737,0.967,1.396,2.041,1.672,3.237c0.091,0.411,0.131,0.838,0.086,1.257c-0.029,0.269-0.093,0.535-0.196,0.785
			c0.01,0.065-1.716,3.147-1.779,3.285c1.205,3.814,1.683,7.858,1.837,11.844c0.318,7.841-1.238,15.66-3.373,23.17
			c-3.342,11.618-8.151,23.193-13.044,34.243c-8.826,19.734-20.029,41.294-30.263,60.387
			c-11.201,20.642-23.671,43.075-36.333,62.803c-7.116,10.937-14.625,22.045-23.547,31.598c-5.68,6.054-12.352,11.345-20.023,14.629
			c-3.149,1.32-6.533,2.222-9.963,2.25c-2.635,0.033-5.269-0.482-7.743-1.374c-5-1.799-9.674-4.773-13.03-8.933
			c-1.266-1.573-2.307-3.336-3.06-5.21c-0.857-2.112-1.367-4.369-1.683-6.621c-0.39-2.537-0.376-5.314-0.954-7.82
			c-0.538-2.358-1.796-4.5-3.395-6.296c-6.96,5.93-16.68,7.761-25.327,4.758c-9.477-3.25-16.308-11.799-17.38-21.762
			c-0.581-5.215,0.471-10.597,2.973-15.21c0.738-1.333,106.687-197.51,107.387-198.715c0.548-0.936,1.169-1.862,1.83-2.722
			c0.559-0.727,1.18-1.454,1.814-2.117c1.945-2.038,4.233-3.764,6.727-5.073c9.038-4.769,20.185-3.748,28.207,2.6
			c7.133,5.597,10.857,14.66,9.718,23.655c1.779,0.067,3.581-0.168,5.256-0.78c1.995-0.7,4.109-2.118,5.959-3.137
			c2.144-1.196,4.401-2.272,6.765-2.951c1.922-0.557,3.931-0.848,5.933-0.829c0.679-0.613,1.576-0.919,2.462-1.083
			c1.837-0.319,3.731-0.105,5.545,0.263c-0.221-0.63-0.37-1.289-0.441-1.953c-0.023-0.216-0.039-0.444-0.045-0.661
			c-0.004-0.087-0.541-26.525-0.544-26.615l-7.391,0.557c-1.565-20.541-4.488-41.275-9.806-61.197
			c-1.59-5.925-3.572-12.327-5.67-18.09c-1.959-5.512-7.182-17.828-9.447-23.368c-2.974-7.242-6.469-18.699-9.014-26.197
			c-17.929-12.084-40.616-28.784-59.437-39.004c-14.569-8.081-30.015-14.939-45.899-19.974
			c-23.444-7.485-48.174-11.117-72.772-11.095c-24.598-0.022-49.328,3.611-72.772,11.095c-15.882,5.035-31.333,11.894-45.899,19.974
			c-18.807,10.201-41.599,26.992-59.437,39.004c-2.558,7.534-6.029,18.921-9.014,26.197c-2.306,5.636-7.478,17.837-9.447,23.368
			c-2.098,5.764-4.079,12.164-5.67,18.09c-5.318,19.922-8.242,40.657-9.806,61.197l-7.391-0.557l-0.541,26.534
			c-0.001,0.044-0.003,0.13-0.005,0.174c-0.006,0.142-0.016,0.3-0.029,0.441c-0.033,0.361-0.09,0.727-0.169,1.081
			c-0.317,1.44-1.011,2.797-1.993,3.897c3.886-1.595,8.17-2.442,12.367-1.927c2.877,0.349,5.647,1.358,8.224,2.659
			c1.447,0.714,3.371,1.859,4.781,2.678c0.913,0.518,1.869,1.009,2.854,1.375c1.717,0.65,3.572,0.904,5.403,0.834
			c-1.148-9.073,2.647-18.21,9.899-23.797c7.912-6.146,18.807-7.175,27.729-2.611c4.681,2.372,8.606,6.202,11.093,10.823
			c0.711,1.348,106.737,197.483,107.361,198.729c0.483,0.971,0.917,1.999,1.274,3.022c0.301,0.866,0.569,1.784,0.777,2.678
			c0.639,2.744,0.829,5.603,0.557,8.407c-0.964,10.173-7.927,18.937-17.633,22.169c-8.589,2.899-18.209,1.048-25.109-4.832
			c-1.003,1.138-1.89,2.402-2.528,3.781c-0.563,1.206-0.921,2.509-1.123,3.823c-0.306,2.072-0.387,4.44-0.699,6.511
			c-0.337,2.399-0.894,4.801-1.854,7.032c-1.808,4.273-5.151,7.747-8.988,10.284c-1.723,1.139-3.572,2.107-5.482,2.892
			c-1.875,0.773-3.84,1.386-5.848,1.692c-3.202,0.503-6.503,0.184-9.609-0.705c-3.724-1.061-7.227-2.846-10.505-4.886
			c-5.231-3.225-9.865-7.392-14.016-11.904c-4.722-5.11-9.132-10.91-13.189-16.568c-8.465-11.868-16.645-25.343-24.065-37.932
			c-12.242-21.045-25.27-45.072-36.368-66.751c-7.255-14.418-15.186-30.617-21.22-45.551c-2.933-7.301-5.844-15.107-7.916-22.701
			c-1.398-5.138-2.521-10.455-2.899-15.775c-0.313-4.66-0.112-9.405,0.75-13.999c0.77-3.997,2.182-7.96,4.67-11.219
			c1.625-2.149,3.702-3.94,5.958-5.4c-1.619,0.214-3.297-0.044-4.777-0.734c-1.516-0.701-2.82-1.853-3.703-3.27
			c-0.46-0.735-0.809-1.543-1.031-2.382c-0.156-0.59-0.25-1.201-0.278-1.811c-0.009-0.189-0.012-0.394-0.008-0.583
			C137.677,383.577,138.238,356.091,138.238,356.091z"/>
	</g>
</g>
</svg>
